<?xml version="1.0" encoding="UTF-8"?>
<!DOCTYPE svg PUBLIC "-//W3C//DTD SVG 1.1//EN" "http://www.w3.org/Graphics/SVG/1.1/DTD/svg11.dtd">
<!-- Creator: CorelDRAW X7 -->
<svg xmlns="http://www.w3.org/2000/svg" xml:space="preserve" width="135.467mm" height="135.467mm" version="1.1" style="shape-rendering:geometricPrecision; text-rendering:geometricPrecision; image-rendering:optimizeQuality; fill-rule:evenodd; clip-rule:evenodd"
viewBox="0 0 13547 13547"
 xmlns:xlink="http://www.w3.org/1999/xlink">
 <defs>
  <style type="text/css">
   <![CDATA[
    .str0 {stroke:#336699;stroke-width:300}
    .fil0 {fill:#336699;fill-rule:nonzero}
   ]]>
  </style>
 </defs>
 <g id="Слой_x0020_1">
  <metadata id="CorelCorpID_0Corel-Layer"/>
  <path class="fil0 str0" d="M6773 12332l567 0 -3313 -5574 -814 1369 2499 4204 1061 0 0 1zm-2858 -5763l-814 -1369 -1877 3157 -41 -24 816 1459 1916 -3223 0 0zm-702 -1558l4351 7321 1629 0c-998,-1678 -2028,-3414 -3059,-5150 -705,-1187 -1410,-2375 -2105,-3544l-816 1373 0 0zm704 -1562c-316,-532 -630,-1061 -941,-1583l-2768 4724 893 1597 2816 -4737 0 -1zm-1816 6525l796 1424c78,-131 60,-101 496,-833 173,-292 348,-585 522,-878l-815 -1371 -989 1664 -11 -6 1 0zm905 1618l414 740 774 0 319 -536 328 -552 -814 -1369c-157,263 -313,526 -469,788 -149,251 -21,36 -552,929l0 0zm1412 740l1070 0 -535 -900 -274 462 -261 438zm4357 -10429l807 1358 428 -720c161,-272 322,-542 481,-810l-302 -516 -1004 0c0,0 -340,571 -410,688zm-112 -188c100,-167 199,-334 298,-500l-595 0 297 500 0 0zm1940 206c-142,238 -284,477 -427,718l-482 811 817 1373 902 -1518 -810 -1384 0 0zm922 1573l-1828 3075 814 1370 1822 -3065 -808 -1380 0 0zm-1940 2887l814 -1370 -2257 -3796 -1628 0 3071 5166 0 0zm2859 -1317l-2748 4623c339,569 669,1124 985,1654l2657 -4751 -894 -1526 0 0zm-2860 4434l815 -1371 -4110 -6912 -1638 0c1086,1827 2101,3531 3117,5235 614,1030 1228,2061 1816,3048l0 0zm988 2037c-1047,-1760 -2008,-3373 -2969,-4986 -1099,-1844 -2198,-3688 -3176,-5334l0 0 -1069 0 -271 461c2,2 3,4 5,7 1044,1756 2126,3579 3208,5401 1051,1770 2102,3539 3117,5248l709 0 446 -797 0 0zm-389 990l-6819 0 0 0c-34,0 -67,-18 -84,-50l-3267 -5839 0 0c-16,-28 -16,-65 2,-95l3200 -5464c16,-32 49,-55 88,-55l6941 0c17,0 77,38 83,48l3203 5468c19,29 21,66 3,98l-3262 5832c-16,33 -49,57 -88,57l0 0z"/>
 </g>
</svg>
