<svg xmlns="http://www.w3.org/2000/svg" xmlns:xlink="http://www.w3.org/1999/xlink" version="1.1" width="303" height="144" xml:space="preserve" style=""><rect id="backgroundrect" width="100%" height="100%" x="0" y="0" fill="none" stroke="none"/>
<desc>Created with Fabric.js 3.6.3</desc>
<defs>
</defs>


<g class="currentLayer" style=""><title>Layer 1</title><g id="svg_1" class="">
<g style="opacity: 0.64;" stroke-width="0" id="svg_2">
		<g stroke-width="0" id="svg_3">
<linearGradient id="SVGID_14748" gradientUnits="userSpaceOnUse" gradientTransform="matrix(1 0 0 1 -210.35 -241.8)" x1="0" y1="0" x2="500" y2="500" transform="translate(-68.13481140136719,-163.77944946289062) matrix(0.2986783191219452,0,0,0.2986783191219452,130.96179400288966,235.99987382091513) " stroke-width="0">
<stop offset="0%" style="stop-color:rgb(45,56,138);stop-opacity: 1"/>
<stop offset="100%" style="stop-color:rgb(0,174,239);stop-opacity: 1"/>
</linearGradient>
<polygon style="stroke: none; stroke-width: 1; stroke-dasharray: none; stroke-linecap: butt; stroke-dashoffset: 0; stroke-linejoin: miter; stroke-miterlimit: 4; fill: url(#SVGID_14748); fill-rule: nonzero; opacity: 1;" points="120.81538391113281,105.134765625 63.37953186035156,138.915283203125 5.316474914550781,106.03082275390625 4.778846740722656,39.3359375 62.304290771484375,5.5255584716796875 120.33749389648438,38.4100341796875 125.08647155761719,35.63232421875 125.08647155761719,35.60246276855469 62.24455261230469,0 0,36.61796569824219 0.59735107421875,108.83837890625 63.40940856933594,144.44085693359375 125.65397644042969,107.8228759765625 125.65397644042969,107.4644775390625 " stroke-width="0" id="svg_4"/>
</g>
		<g stroke-width="0" id="svg_5">
<linearGradient id="SVGID_14749" gradientUnits="userSpaceOnUse" gradientTransform="matrix(1 0 0 1 -187.04999999999998 -214.95)" x1="0" y1="0" x2="500" y2="500" transform="translate(-68.13481140136719,-163.77944946289062) matrix(0.2986783191219452,0,0,0.2986783191219452,130.96179400288966,235.98493990495902) " stroke-width="0">
<stop offset="0%" style="stop-color:rgb(45,56,138);stop-opacity: 1"/>
<stop offset="100%" style="stop-color:rgb(0,174,239);stop-opacity: 1"/>
</linearGradient>
<polygon style="stroke: none; stroke-width: 1; stroke-dasharray: none; stroke-linecap: butt; stroke-dashoffset: 0; stroke-linejoin: miter; stroke-miterlimit: 4; fill: url(#SVGID_14749); fill-rule: nonzero; opacity: 1;" points="117.08189392089844,102.80508422851562 117.08189392089844,102.95443725585938 63.31980895996094,134.58447265625 9.079818725585938,103.8504638671875 8.572067260742188,41.45655822753906 62.33416748046875,9.85638427734375 116.514404296875,40.560516357421875 118.12727355957031,39.634613037109375 62.722442626953125,8.2435302734375 62.304290771484375,8.004592895507812 6.959205627441406,40.560516357421875 7.496826171875,104.7763671875 63.34967041015625,136.40640258789062 118.30647277832031,104.08938598632812 118.69476318359375,103.88034057617188 118.69476318359375,103.73098754882812 " stroke-width="0" id="svg_6"/>
</g>
</g>
</g><g id="svg_7" class="">
<linearGradient id="SVGID_14750" gradientUnits="userSpaceOnUse" gradientTransform="matrix(1 0 0 1 12.30510000000001 2.777700000000003)" x1="0" y1="0" x2="75.39019775390625" y2="94.44510650634766" transform="translate(-68.13481140136719,-163.77944946289062) matrix(0.885471445173919,0,0,0.885471445173919,132.49998734636765,235.99987382091513) " stroke-width="0">
<stop offset="0%" style="stop-color:rgb(45,56,138);stop-opacity: 1"/>
<stop offset="100%" style="stop-color:rgb(0,174,239);stop-opacity: 1"/>
</linearGradient>
<path style="stroke: none; stroke-width: 0; stroke-dasharray: none; stroke-linecap: butt; stroke-dashoffset: 0; stroke-linejoin: miter; stroke-miterlimit: 4; fill: url(#SVGID_14750); fill-rule: nonzero; opacity: 0.93;" d="m95.28389222169733,41.64752883534155 h-8.782105793234928 v-8.782105793234928 c0,-1.3523805382141263 -1.1068393064673987,-2.4592198446815248 -2.4592198446815248,-2.4592198446815248 h-11.241059996482901 c-1.3523805382141263,0 -2.4592198446815248,1.1068393064673987 -2.4592198446815248,2.4592198446815248 v20.019623903937134 l-36.89582417750685,0.003459536936294503 c-1.3523805382141263,0 -2.4592198446815248,1.1068393064673987 -2.4592198446815248,2.4592198446815248 v44.98637677206095 c0,1.3523805382141263 1.1068393064673987,2.4592198446815248 2.4592198446815248,2.4592198446815248 h8.782105793234928 v8.782105793234928 c0,1.3523805382141263 1.1068393064673987,2.4592198446815248 2.4592198446815248,2.4592198446815248 h11.241059996482901 c1.3523805382141263,0 2.4592198446815248,-1.1068393064673987 2.4592198446815248,-2.4592198446815248 v-20.019623903937134 h36.89582417750685 c1.3523805382141263,0 2.4592198446815248,-1.1068393064673987 2.4592198446815248,-2.4592198446815248 v-44.98991865784165 c0,-1.3523805382141263 -1.1068393064673987,-2.4592198446815248 -2.4592198446815248,-2.4592198446815248 zm-2.4592198446815248,4.918528236507568 v28.801729697172064 h-6.322797401408886 v-28.801729697172064 zm-36.89582417750685,28.82652289763693 h-8.782105793234928 v-6.322797401408886 h34.43686997425888 v6.322797401408886 zm19.331612591037,-40.06758289411983 h6.322797401408886 v28.801729697172064 h-6.322797401408886 zm-39.35477838075483,22.48300546441098 h34.43686997425888 v6.322797401408886 l-34.43686997425888,-0.00345865146484933 v-6.322797401408886 zm0,40.06758289411983 v-28.801729697172064 h6.322797401408886 v28.801729697172064 zm17.564211586469856,11.241059996482901 h-6.322797401408886 v-28.801729697172064 h6.322797401408886 zm39.35477838075483,-22.48300546441098 h-34.43686997425888 v-6.322797401408886 h34.43686997425888 z" stroke-linecap="round" stroke-width="0" id="svg_8"/>
</g><g style="" id="svg_9" class=""><path fill="url(#CUSTOM_SVGID_78)" opacity="1" d="M126.98317853578425,82.61492833665423 L130.90317853578426,82.61492833665423 L130.90317853578426,57.65492833665422 L141.21317853578427,57.65492833665422 L141.21317853578427,82.61492833665423 L145.13317853578425,82.61492833665423 L145.13317853578425,53.734928336654235 L123.68317853578426,53.734928336654235 L123.68317853578426,57.65492833665422 L126.98317853578425,57.65492833665422 L126.98317853578425,82.61492833665423 z" stroke-width="0" id="svg_10"/>
    <linearGradient id="CUSTOM_SVGID_78" x1="-0.01916205405382334" y1="-0.25575655363777205" x2="9.212636413237943" y2="1.3582495929382665" transform="translate(-68.13481140136719,-163.77944946289062) matrix(1,0,0,1,290.41798993715145,233.43437779954485) " stroke-width="0">
      <stop offset="0" style="stop-color:#2d388a;stop-opacity:undefined"/><stop offset="1" style="stop-color:#00aeef;stop-opacity:undefined"/>
    </linearGradient>
  <path fill="url(#CUSTOM_SVGID_79)" opacity="1" d="M166.17317853578425,69.61492833665423 C166.17317853578425,65.08492833665423 163.08317853578427,61.984928336654235 158.54317853578425,61.984928336654235 C154.00317853578426,61.984928336654235 150.91317853578425,65.08492833665423 150.91317853578425,69.61492833665423 L150.91317853578425,75.39492833665423 C150.91317853578425,79.93492833665422 154.00317853578426,83.02492833665423 158.54317853578425,83.02492833665423 C163.08317853578427,83.02492833665423 166.17317853578425,79.93492833665422 166.17317853578425,75.39492833665423 zM154.62317853578426,69.61492833665423 C154.62317853578426,67.35492833665421 156.27317853578427,65.70492833665423 158.54317853578425,65.70492833665423 C160.81317853578426,65.70492833665423 162.46317853578427,67.35492833665421 162.46317853578427,69.61492833665423 L162.46317853578427,75.39492833665423 C162.46317853578427,77.66492833665421 160.81317853578426,79.31492833665422 158.54317853578425,79.31492833665422 C156.27317853578427,79.31492833665422 154.62317853578426,77.66492833665421 154.62317853578426,75.39492833665423 z" stroke-width="0" id="svg_11"/>
    <linearGradient id="CUSTOM_SVGID_79" x1="-1.811337998629109" y1="-0.7431677215706254" x2="11.165203366332376" y2="1.472255149569124" transform="translate(-68.13481140136719,-163.77944946289062) matrix(1,0,0,1,290.41798993715145,233.43437779954485) " stroke-width="0">
      <stop offset="0" style="stop-color:#2d388a;stop-opacity:undefined"/><stop offset="1" style="stop-color:#00aeef;stop-opacity:undefined"/>
    </linearGradient>
  <path fill="url(#CUSTOM_SVGID_80)" opacity="1" d="M176.89317853578427,66.11492833665423 L180.81317853578426,66.11492833665423 L180.81317853578426,82.61492833665423 L184.53317853578426,82.61492833665423 L184.53317853578426,62.40492833665422 L174.21317853578427,62.40492833665422 L169.26317853578425,78.90492833665422 L166.58317853578427,78.90492833665422 L166.58317853578427,82.61492833665423 L171.94317853578426,82.61492833665423 z" stroke-width="0" id="svg_12"/>
    <linearGradient id="CUSTOM_SVGID_80" x1="-2.412870299235892" y1="-0.7944705762439292" x2="8.618998254165087" y2="1.5119372094384034" transform="translate(-68.13481140136719,-163.77944946289062) matrix(1,0,0,1,290.41798993715145,233.43437779954485) " stroke-width="0">
      <stop offset="0" style="stop-color:#2d388a;stop-opacity:undefined"/><stop offset="1" style="stop-color:#00aeef;stop-opacity:undefined"/>
    </linearGradient>
  <path fill="url(#CUSTOM_SVGID_81)" opacity="1" d="M204.94317853578428,61.984928336654235 C204.94317853578428,64.46492833665422 203.09317853578426,66.31492833665422 200.61317853578424,66.31492833665422 L191.13317853578428,66.31492833665422 L191.13317853578428,82.61492833665423 L195.04317853578425,82.61492833665423 L195.04317853578425,70.23492833665424 L200.61317853578424,70.23492833665424 C205.15317853578426,70.23492833665424 208.86317853578424,66.52492833665423 208.86317853578424,61.984928336654235 C208.86317853578424,57.454928336654234 205.15317853578426,53.734928336654235 200.61317853578424,53.734928336654235 L187.83317853578427,53.734928336654235 L187.83317853578427,57.65492833665422 L200.61317853578424,57.65492833665422 C203.09317853578426,57.65492833665422 204.94317853578428,59.514928336654236 204.94317853578428,61.984928336654235 z" stroke-width="0" id="svg_13"/>
    <linearGradient id="CUSTOM_SVGID_81" x1="-3.069948721074261" y1="-0.25575655363777205" x2="6.346220679050556" y2="1.3582495929382665" transform="translate(-68.13481140136719,-163.77944946289062) matrix(1,0,0,1,290.41798993715145,233.43437779954485) " stroke-width="0">
      <stop offset="0" style="stop-color:#2d388a;stop-opacity:undefined"/><stop offset="1" style="stop-color:#00aeef;stop-opacity:undefined"/>
    </linearGradient>
  <path fill="url(#CUSTOM_SVGID_82)" opacity="1" d="M227.01317853578428,69.61492833665423 C227.01317853578428,65.08492833665423 223.92317853578425,61.984928336654235 219.38317853578428,61.984928336654235 C214.84317853578426,61.984928336654235 211.7531785357843,65.08492833665423 211.7531785357843,69.61492833665423 L211.7531785357843,75.39492833665423 C211.7531785357843,79.93492833665422 214.84317853578426,83.02492833665423 219.38317853578428,83.02492833665423 C223.92317853578425,83.02492833665423 227.01317853578428,79.93492833665422 227.01317853578428,75.39492833665423 zM215.46317853578427,69.61492833665423 C215.46317853578427,67.35492833665421 217.11317853578424,65.70492833665423 219.38317853578428,65.70492833665423 C221.65317853578426,65.70492833665423 223.30317853578424,67.35492833665421 223.30317853578424,69.61492833665423 L223.30317853578424,75.39492833665423 C223.30317853578424,77.66492833665421 221.65317853578426,79.31492833665422 219.38317853578428,79.31492833665422 C217.11317853578424,79.31492833665422 215.46317853578427,77.66492833665421 215.46317853578427,75.39492833665423 z" stroke-width="0" id="svg_14"/>
    <linearGradient id="CUSTOM_SVGID_82" x1="-5.798232202818901" y1="-0.7431677215706254" x2="7.178310784081513" y2="1.472255149569124" transform="translate(-68.13481140136719,-163.77944946289062) matrix(1,0,0,1,290.41798993715145,233.43437779954485) " stroke-width="0">
      <stop offset="0" style="stop-color:#2d388a;stop-opacity:undefined"/><stop offset="1" style="stop-color:#00aeef;stop-opacity:undefined"/>
    </linearGradient>
  <path fill="url(#CUSTOM_SVGID_83)" opacity="1" d="M231.14317853578427,75.39492833665423 C231.14317853578427,79.93492833665422 234.23317853578425,83.02492833665423 238.77317853578427,83.02492833665423 C244.34317853578426,83.02492833665423 245.58317853578427,78.69492833665421 245.58317853578427,78.69492833665421 L242.48317853578425,76.83492833665423 C242.48317853578425,76.83492833665423 241.66317853578425,79.31492833665422 238.77317853578427,79.31492833665422 C236.5031785357843,79.31492833665422 234.85317853578425,77.66492833665421 234.85317853578425,75.39492833665423 L234.85317853578425,69.61492833665423 C234.85317853578425,67.35492833665421 236.5031785357843,65.70492833665423 238.77317853578427,65.70492833665423 C241.66317853578425,65.70492833665423 242.48317853578425,68.17492833665423 242.48317853578425,68.17492833665423 L245.58317853578427,66.31492833665422 C245.58317853578427,66.31492833665422 244.34317853578426,61.984928336654235 238.77317853578427,61.984928336654235 C234.23317853578425,61.984928336654235 231.14317853578427,65.08492833665423 231.14317853578427,69.61492833665423 z" stroke-width="0" id="svg_15"/>
    <linearGradient id="CUSTOM_SVGID_83" x1="-7.470292746982998" y1="-0.7431677215706254" x2="6.243145944470132" y2="1.472255149569124" transform="translate(-68.13481140136719,-163.77944946289062) matrix(1,0,0,1,290.41798993715145,233.43437779954485) " stroke-width="0">
      <stop offset="0" style="stop-color:#2d388a;stop-opacity:undefined"/><stop offset="1" style="stop-color:#00aeef;stop-opacity:undefined"/>
    </linearGradient>
  <path fill="url(#CUSTOM_SVGID_84)" opacity="1" d="M248.46317853578427,75.39492833665423 C248.46317853578427,79.93492833665422 251.56317853578423,83.02492833665423 256.09317853578426,83.02492833665423 C261.66317853578425,83.02492833665423 262.90317853578426,78.69492833665421 262.90317853578426,78.69492833665421 L259.81317853578423,76.83492833665423 C259.81317853578423,76.83492833665423 258.98317853578425,79.31492833665422 256.09317853578426,79.31492833665422 C253.83317853578427,79.31492833665422 252.18317853578424,77.66492833665421 252.18317853578424,75.39492833665423 L252.18317853578424,69.61492833665423 C252.18317853578424,67.35492833665421 253.83317853578427,65.70492833665423 256.09317853578426,65.70492833665423 C258.98317853578425,65.70492833665423 259.81317853578423,68.17492833665423 259.81317853578423,68.17492833665423 L262.90317853578426,66.31492833665422 C262.90317853578426,66.31492833665422 261.66317853578425,61.984928336654235 256.09317853578426,61.984928336654235 C251.56317853578423,61.984928336654235 248.46317853578427,65.08492833665423 248.46317853578427,69.61492833665423 z" stroke-width="0" id="svg_16"/>
    <linearGradient id="CUSTOM_SVGID_84" x1="-8.669739382711125" y1="-0.7431677215706254" x2="5.043700214431445" y2="1.472255149569124" transform="translate(-68.13481140136719,-163.77944946289062) matrix(1,0,0,1,290.41798993715145,233.43437779954485) " stroke-width="0">
      <stop offset="0" style="stop-color:#2d388a;stop-opacity:undefined"/><stop offset="1" style="stop-color:#00aeef;stop-opacity:undefined"/>
    </linearGradient>
  <path fill="url(#CUSTOM_SVGID_85)" opacity="1" d="M281.8831785357843,82.61492833665423 L281.8831785357843,62.40492833665422 L278.16317853578425,62.40492833665422 L270.74317853578424,75.80492833665423 L270.74317853578424,62.40492833665422 L264.1431785357843,62.40492833665422 L264.1431785357843,66.11492833665423 L267.03317853578426,66.11492833665423 L267.03317853578426,82.61492833665423 L270.74317853578424,82.61492833665423 L278.16317853578425,69.20492833665423 L278.16317853578425,82.61492833665423 z" stroke-width="0" id="svg_17"/>
    <linearGradient id="CUSTOM_SVGID_85" x1="-7.94087046499316" y1="-0.7944705762439292" x2="3.2215913611503786" y2="1.5119372094384034" transform="translate(-68.13481140136719,-163.77944946289062) matrix(1,0,0,1,290.41798993715145,233.43437779954485) " stroke-width="0">
      <stop offset="0" style="stop-color:#2d388a;stop-opacity:undefined"/><stop offset="1" style="stop-color:#00aeef;stop-opacity:undefined"/>
    </linearGradient>
  <path fill="url(#CUSTOM_SVGID_86)" opacity="1" d="M302.91317853578425,82.61492833665423 L302.91317853578425,62.40492833665422 L299.2031785357843,62.40492833665422 L291.78317853578426,75.80492833665423 L291.78317853578426,62.40492833665422 L285.18317853578424,62.40492833665422 L285.18317853578424,66.11492833665423 L288.06317853578423,66.11492833665423 L288.06317853578423,82.61492833665423 L291.78317853578426,82.61492833665423 L299.2031785357843,69.20492833665423 L299.2031785357843,82.61492833665423 z" stroke-width="0" id="svg_18"/>
    <linearGradient id="CUSTOM_SVGID_86" x1="-9.132039764086844" y1="-0.7944705762439292" x2="2.036719213255614" y2="1.5119372094384034" transform="translate(-68.13481140136719,-163.77944946289062) matrix(1,0,0,1,290.41798993715145,233.43437779954485) " stroke-width="0">
      <stop offset="0" style="stop-color:#2d388a;stop-opacity:undefined"/><stop offset="1" style="stop-color:#00aeef;stop-opacity:undefined"/>
    </linearGradient>
  </g></g></svg>