<?xml version="1.0" encoding="UTF-8" standalone="no" ?>
<!DOCTYPE svg PUBLIC "-//W3C//DTD SVG 1.1//EN" "http://www.w3.org/Graphics/SVG/1.1/DTD/svg11.dtd">
<svg xmlns="http://www.w3.org/2000/svg" xmlns:xlink="http://www.w3.org/1999/xlink" version="1.1" width="500" height="500" viewBox="0 0 500 500" xml:space="preserve">
<desc>Created with Fabric.js 3.6.3</desc>
<defs>
</defs>
<g transform="matrix(0.5792612809723582 0 0 0.5792612809723582 243.49999869742024 227.99988391524192)"  >
<g style=""   >
		<g transform="matrix(1 0 0 1 -119.46469871530894 -46.6547160965022)"  >
<linearGradient id="SVGID_21613" gradientUnits="userSpaceOnUse" gradientTransform="matrix(1 0 0 1 71.99056780699561 175.6905678069956)"  x1="0" y1="0" x2="512" y2="512">
<stop offset="0%" style="stop-color:rgb(120,103,86);stop-opacity: 1"/>
<stop offset="33%" style="stop-color:rgb(132,115,97);stop-opacity: 1"/>
<stop offset="67%" style="stop-color:rgb(168,164,155);stop-opacity: 1"/>
<stop offset="100%" style="stop-color:rgb(214,214,214);stop-opacity: 1"/>
</linearGradient>
<path style="stroke: none; stroke-width: 1; stroke-dasharray: none; stroke-linecap: butt; stroke-dashoffset: 0; stroke-linejoin: miter; stroke-miterlimit: 4; fill: url(#SVGID_21613); fill-rule: nonzero; opacity: 1;"  transform=" translate(-137.03530128469106, -207.8452839034978)" d="M 187 240 c -23.3 0 -45 -12.6 -56.5 -32.9 c -6.3 -11.1 -18.4 -17.7 -31.4 -17.2 c -0.7 0 -1.4 0 -2.1 0 c -7.6 0 -15 -1.5 -22 -4.6 c -2.5 -1.1 -3.7 -4.1 -2.6 -6.6 s 4.1 -3.7 6.6 -2.6 c 5.7 2.5 11.8 3.8 18 3.8 c 0.6 0 1.1 0 1.7 0 c 16.8 -0.6 32.3 7.9 40.5 22.2 c 11.3 19.8 34 30.9 57 27 c 2.7 -0.5 5.3 1.4 5.8 4.1 c 0.5 2.7 -1.4 5.3 -4.1 5.8 C 194.2 239.7 190.6 240 187 240 z" stroke-linecap="round" />
</g>
		<g transform="matrix(1 0 0 1 -119.47925315274973 -134.88687226326758)"  >
<linearGradient id="SVGID_21614" gradientUnits="userSpaceOnUse" gradientTransform="matrix(1 0 0 1 71.97720857807083 94.42625547346483)"  x1="0" y1="0" x2="512" y2="512">
<stop offset="0%" style="stop-color:rgb(120,103,86);stop-opacity: 1"/>
<stop offset="33%" style="stop-color:rgb(132,115,97);stop-opacity: 1"/>
<stop offset="67%" style="stop-color:rgb(168,164,155);stop-opacity: 1"/>
<stop offset="100%" style="stop-color:rgb(214,214,214);stop-opacity: 1"/>
</linearGradient>
<path style="stroke: none; stroke-width: 1; stroke-dasharray: none; stroke-linecap: butt; stroke-dashoffset: 0; stroke-linejoin: miter; stroke-miterlimit: 4; fill: url(#SVGID_21614); fill-rule: nonzero; opacity: 1;"  transform=" translate(-137.02074684725028, -119.61312773673242)" d="M 77 144.8 c -1.6 0 -3.2 -0.8 -4.2 -2.2 c -1.5 -2.3 -0.9 -5.4 1.4 -6.9 c 7.9 -5.3 14.9 -11.9 20.6 -19.5 c 13.9 -18.3 38.2 -26.1 60.5 -19.4 c 7 2.1 14.3 3.2 21.7 3.2 c 6.3 0 12.6 -0.8 18.8 -2.4 c 2.7 -0.7 5.4 0.9 6.1 3.6 s -0.9 5.4 -3.6 6.1 c -6.9 1.8 -14.1 2.7 -21.2 2.7 c -8.4 0 -16.6 -1.2 -24.6 -3.6 c -18.3 -5.5 -38.3 0.8 -49.6 15.8 c -6.4 8.5 -14.2 15.8 -23 21.8 C 78.9 144.6 78 144.8 77 144.8 z" stroke-linecap="round" />
</g>
		<g transform="matrix(1 0 0 1 -119.66677021604927 34.599629500902694)"  >
<linearGradient id="SVGID_21615" gradientUnits="userSpaceOnUse" gradientTransform="matrix(1 0 0 1 71.8795514529 272.4992590018054)"  x1="0" y1="0" x2="512" y2="512">
<stop offset="0%" style="stop-color:rgb(120,103,86);stop-opacity: 1"/>
<stop offset="33%" style="stop-color:rgb(132,115,97);stop-opacity: 1"/>
<stop offset="67%" style="stop-color:rgb(168,164,155);stop-opacity: 1"/>
<stop offset="100%" style="stop-color:rgb(214,214,214);stop-opacity: 1"/>
</linearGradient>
<path style="stroke: none; stroke-width: 1; stroke-dasharray: none; stroke-linecap: butt; stroke-dashoffset: 0; stroke-linejoin: miter; stroke-miterlimit: 4; fill: url(#SVGID_21615); fill-rule: nonzero; opacity: 1;"  transform=" translate(-136.83322978395074, -289.09962950090267)" d="M 118.2 305.7 c -4.7 0 -9.5 -0.9 -14.1 -2.6 c -8.3 -3.2 -17.3 -3.9 -26.1 -2 c -2.7 0.6 -5.4 -1.1 -6 -3.8 c -0.6 -2.7 1.1 -5.4 3.8 -6 c 10.7 -2.4 21.7 -1.5 31.9 2.4 c 10.4 4.1 22.4 1.7 30.4 -6 c 7.9 -7.6 17.9 -12.5 28.7 -14.4 c 10.9 -1.9 22 -0.4 32.1 4.3 c 2.5 1.2 3.6 4.1 2.4 6.6 s -4.1 3.6 -6.6 2.4 c -8.3 -3.8 -17.4 -5.1 -26.3 -3.6 c -8.9 1.5 -17 5.6 -23.5 11.8 C 137.8 302 128.1 305.7 118.2 305.7 z" stroke-linecap="round" />
</g>
		<g transform="matrix(1 0 0 1 -119.5 -74.5)"  >
<linearGradient id="SVGID_21616" gradientUnits="userSpaceOnUse" gradientTransform="matrix(1 0 0 1 72 20)"  x1="0" y1="0" x2="512" y2="512">
<stop offset="0%" style="stop-color:rgb(120,103,86);stop-opacity: 1"/>
<stop offset="33%" style="stop-color:rgb(132,115,97);stop-opacity: 1"/>
<stop offset="67%" style="stop-color:rgb(168,164,155);stop-opacity: 1"/>
<stop offset="100%" style="stop-color:rgb(214,214,214);stop-opacity: 1"/>
</linearGradient>
<path style="stroke: none; stroke-width: 1; stroke-dasharray: none; stroke-linecap: butt; stroke-dashoffset: 0; stroke-linejoin: miter; stroke-miterlimit: 4; fill: url(#SVGID_21616); fill-rule: nonzero; opacity: 1;"  transform=" translate(-137, -180)" d="M 197 340 H 77 c -2.8 0 -5 -2.2 -5 -5 V 25 c 0 -2.8 2.2 -5 5 -5 h 120 c 2.8 0 5 2.2 5 5 v 310 C 202 337.8 199.8 340 197 340 z M 82 330 h 110 V 30 H 82 V 330 z" stroke-linecap="round" />
</g>
		<g transform="matrix(1 0 0 1 -144.4842696090341 -204.1574380165289)"  >
<linearGradient id="SVGID_21617" gradientUnits="userSpaceOnUse" gradientTransform="matrix(1 0 0 1 72.01658474887395 19.98512396694216)"  x1="0" y1="0" x2="512" y2="512">
<stop offset="0%" style="stop-color:rgb(120,103,86);stop-opacity: 1"/>
<stop offset="33%" style="stop-color:rgb(132,115,97);stop-opacity: 1"/>
<stop offset="67%" style="stop-color:rgb(168,164,155);stop-opacity: 1"/>
<stop offset="100%" style="stop-color:rgb(214,214,214);stop-opacity: 1"/>
</linearGradient>
<path style="stroke: none; stroke-width: 1; stroke-dasharray: none; stroke-linecap: butt; stroke-dashoffset: 0; stroke-linejoin: miter; stroke-miterlimit: 4; fill: url(#SVGID_21617); fill-rule: nonzero; opacity: 1;"  transform=" translate(-112.0157303909659, -50.342561983471086)" d="M 85 80.7 c -3.3 0 -6.4 -0.3 -8.9 -0.8 c -2.7 -0.5 -4.5 -3.1 -4 -5.8 s 3.1 -4.5 5.8 -4 c 1.2 0.2 28.6 4.8 34.3 -16.4 c 6.8 -25.4 32.3 -33.2 33.4 -33.5 c 2.6 -0.8 5.4 0.7 6.2 3.4 c 0.8 2.6 -0.7 5.4 -3.4 6.2 l 0 0 c -0.2 0.1 -21.2 6.6 -26.6 26.5 C 116.6 75.7 98.6 80.7 85 80.7 z" stroke-linecap="round" />
</g>
		<g transform="matrix(1 0 0 1 -89.43559004203331 -90.23277374638869)"  >
<linearGradient id="SVGID_21618" gradientUnits="userSpaceOnUse" gradientTransform="matrix(1 0 0 1 132.0156332354233 138.53445250722262)"  x1="0" y1="0" x2="512" y2="512">
<stop offset="0%" style="stop-color:rgb(120,103,86);stop-opacity: 1"/>
<stop offset="33%" style="stop-color:rgb(132,115,97);stop-opacity: 1"/>
<stop offset="67%" style="stop-color:rgb(168,164,155);stop-opacity: 1"/>
<stop offset="100%" style="stop-color:rgb(214,214,214);stop-opacity: 1"/>
</linearGradient>
<path style="stroke: none; stroke-width: 1; stroke-dasharray: none; stroke-linecap: butt; stroke-dashoffset: 0; stroke-linejoin: miter; stroke-miterlimit: 4; fill: url(#SVGID_21618); fill-rule: nonzero; opacity: 1;"  transform=" translate(-167.0644099579667, -164.2672262536113)" d="M 197 190 c -0.1 0 -0.3 0 -0.4 0 c -1.3 -0.1 -31.6 -2.8 -34.6 -24.3 c -1 -7.5 -3.7 -12.6 -7.8 -15.1 c -6.6 -4 -15.4 -0.9 -15.5 -0.9 c -2.6 0.9 -5.5 -0.4 -6.4 -3 s 0.4 -5.5 3 -6.4 c 0.5 -0.2 13.4 -4.8 24.1 1.7 c 6.9 4.2 11.1 11.7 12.6 22.3 c 1.8 13.6 25.2 15.7 25.5 15.7 c 2.7 0.2 4.8 2.6 4.6 5.4 C 201.8 188 199.6 190 197 190 z" stroke-linecap="round" />
</g>
		<g transform="matrix(1 0 0 1 0.535301284691073 23.34528390349783)"  >
<linearGradient id="SVGID_21619" gradientUnits="userSpaceOnUse" gradientTransform="matrix(1 0 0 1 191.9905678069956 245.69056780699566)"  x1="0" y1="0" x2="512" y2="512">
<stop offset="0%" style="stop-color:rgb(120,103,86);stop-opacity: 1"/>
<stop offset="33%" style="stop-color:rgb(132,115,97);stop-opacity: 1"/>
<stop offset="67%" style="stop-color:rgb(168,164,155);stop-opacity: 1"/>
<stop offset="100%" style="stop-color:rgb(214,214,214);stop-opacity: 1"/>
</linearGradient>
<path style="stroke: none; stroke-width: 1; stroke-dasharray: none; stroke-linecap: butt; stroke-dashoffset: 0; stroke-linejoin: miter; stroke-miterlimit: 4; fill: url(#SVGID_21619); fill-rule: nonzero; opacity: 1;"  transform=" translate(-257.03530128469106, -277.84528390349783)" d="M 307 310 c -23.3 0 -45 -12.6 -56.5 -32.9 c -6.3 -11.1 -18.4 -17.7 -31.4 -17.2 c -0.7 0 -1.4 0 -2.1 0 c -7.6 0 -15 -1.5 -22 -4.6 c -2.5 -1.1 -3.7 -4.1 -2.6 -6.6 s 4.1 -3.7 6.6 -2.6 c 5.7 2.5 11.8 3.8 18 3.8 c 0.6 0 1.1 0 1.7 0 c 16.8 -0.6 32.3 7.9 40.5 22.2 c 11.3 19.8 34 30.9 57 27 c 2.7 -0.5 5.3 1.4 5.8 4.1 s -1.4 5.3 -4.1 5.8 C 314.2 309.7 310.6 310 307 310 z" stroke-linecap="round" />
</g>
		<g transform="matrix(1 0 0 1 0.5207468472502796 -64.88687226326762)"  >
<linearGradient id="SVGID_21620" gradientUnits="userSpaceOnUse" gradientTransform="matrix(1 0 0 1 191.9772085780708 164.42625547346478)"  x1="0" y1="0" x2="512" y2="512">
<stop offset="0%" style="stop-color:rgb(120,103,86);stop-opacity: 1"/>
<stop offset="33%" style="stop-color:rgb(132,115,97);stop-opacity: 1"/>
<stop offset="67%" style="stop-color:rgb(168,164,155);stop-opacity: 1"/>
<stop offset="100%" style="stop-color:rgb(214,214,214);stop-opacity: 1"/>
</linearGradient>
<path style="stroke: none; stroke-width: 1; stroke-dasharray: none; stroke-linecap: butt; stroke-dashoffset: 0; stroke-linejoin: miter; stroke-miterlimit: 4; fill: url(#SVGID_21620); fill-rule: nonzero; opacity: 1;"  transform=" translate(-257.0207468472503, -189.6131277367324)" d="M 197 214.8 c -1.6 0 -3.2 -0.8 -4.2 -2.2 c -1.5 -2.3 -0.9 -5.4 1.4 -6.9 c 7.9 -5.3 14.9 -11.9 20.6 -19.5 c 13.9 -18.3 38.2 -26.1 60.5 -19.4 c 7 2.1 14.3 3.2 21.7 3.2 c 6.3 0 12.6 -0.8 18.8 -2.4 c 2.7 -0.7 5.4 0.9 6.1 3.6 s -0.9 5.4 -3.6 6.1 c -6.9 1.8 -14.1 2.7 -21.2 2.7 c -8.4 0 -16.6 -1.2 -24.6 -3.6 c -18.3 -5.5 -38.3 0.8 -49.6 15.8 c -6.4 8.5 -14.2 15.8 -23 21.8 C 198.9 214.6 198 214.8 197 214.8 z" stroke-linecap="round" />
</g>
		<g transform="matrix(1 0 0 1 0.3332297839507845 104.5996295009027)"  >
<linearGradient id="SVGID_21621" gradientUnits="userSpaceOnUse" gradientTransform="matrix(1 0 0 1 191.8795514529 342.4992590018054)"  x1="0" y1="0" x2="512" y2="512">
<stop offset="0%" style="stop-color:rgb(120,103,86);stop-opacity: 1"/>
<stop offset="33%" style="stop-color:rgb(132,115,97);stop-opacity: 1"/>
<stop offset="67%" style="stop-color:rgb(168,164,155);stop-opacity: 1"/>
<stop offset="100%" style="stop-color:rgb(214,214,214);stop-opacity: 1"/>
</linearGradient>
<path style="stroke: none; stroke-width: 1; stroke-dasharray: none; stroke-linecap: butt; stroke-dashoffset: 0; stroke-linejoin: miter; stroke-miterlimit: 4; fill: url(#SVGID_21621); fill-rule: nonzero; opacity: 1;"  transform=" translate(-256.8332297839508, -359.09962950090267)" d="M 238.2 375.7 c -4.7 0 -9.5 -0.9 -14.1 -2.6 c -8.3 -3.2 -17.3 -3.9 -26.1 -2 c -2.7 0.6 -5.4 -1.1 -6 -3.8 c -0.6 -2.7 1.1 -5.4 3.8 -6 c 10.7 -2.4 21.7 -1.5 31.9 2.4 c 10.4 4.1 22.3 1.7 30.4 -6 c 7.9 -7.6 17.9 -12.5 28.7 -14.4 c 10.9 -1.9 22 -0.4 32.1 4.3 c 2.5 1.2 3.6 4.1 2.4 6.6 s -4.1 3.6 -6.6 2.4 c -8.3 -3.8 -17.4 -5.1 -26.3 -3.6 s -17 5.6 -23.5 11.8 C 257.8 372 248.1 375.7 238.2 375.7 z" stroke-linecap="round" />
</g>
		<g transform="matrix(1 0 0 1 0.5 -4.5)"  >
<linearGradient id="SVGID_21622" gradientUnits="userSpaceOnUse" gradientTransform="matrix(1 0 0 1 192 90)"  x1="0" y1="0" x2="512" y2="512">
<stop offset="0%" style="stop-color:rgb(120,103,86);stop-opacity: 1"/>
<stop offset="33%" style="stop-color:rgb(132,115,97);stop-opacity: 1"/>
<stop offset="67%" style="stop-color:rgb(168,164,155);stop-opacity: 1"/>
<stop offset="100%" style="stop-color:rgb(214,214,214);stop-opacity: 1"/>
</linearGradient>
<path style="stroke: none; stroke-width: 1; stroke-dasharray: none; stroke-linecap: butt; stroke-dashoffset: 0; stroke-linejoin: miter; stroke-miterlimit: 4; fill: url(#SVGID_21622); fill-rule: nonzero; opacity: 1;"  transform=" translate(-257, -250)" d="M 317 410 H 197 c -2.8 0 -5 -2.2 -5 -5 V 95 c 0 -2.8 2.2 -5 5 -5 h 120 c 2.8 0 5 2.2 5 5 v 310 C 322 407.8 319.8 410 317 410 z M 202 400 h 110 V 100 H 202 V 400 z" stroke-linecap="round" />
</g>
		<g transform="matrix(1 0 0 1 -24.484269609034072 -134.15743801652894)"  >
<linearGradient id="SVGID_21623" gradientUnits="userSpaceOnUse" gradientTransform="matrix(1 0 0 1 192.01658474887398 89.98512396694213)"  x1="0" y1="0" x2="512" y2="512">
<stop offset="0%" style="stop-color:rgb(120,103,86);stop-opacity: 1"/>
<stop offset="33%" style="stop-color:rgb(132,115,97);stop-opacity: 1"/>
<stop offset="67%" style="stop-color:rgb(168,164,155);stop-opacity: 1"/>
<stop offset="100%" style="stop-color:rgb(214,214,214);stop-opacity: 1"/>
</linearGradient>
<path style="stroke: none; stroke-width: 1; stroke-dasharray: none; stroke-linecap: butt; stroke-dashoffset: 0; stroke-linejoin: miter; stroke-miterlimit: 4; fill: url(#SVGID_21623); fill-rule: nonzero; opacity: 1;"  transform=" translate(-232.01573039096593, -120.34256198347106)" d="M 205 150.7 c -3.3 0 -6.4 -0.3 -8.9 -0.8 c -2.7 -0.5 -4.5 -3.1 -4 -5.8 s 3.1 -4.5 5.8 -4 c 1.2 0.2 28.6 4.8 34.3 -16.4 c 6.8 -25.4 32.3 -33.2 33.4 -33.5 c 2.6 -0.8 5.4 0.7 6.2 3.4 c 0.8 2.6 -0.7 5.4 -3.4 6.2 l 0 0 c -0.2 0.1 -21.2 6.6 -26.6 26.5 C 236.6 145.7 218.6 150.7 205 150.7 z" stroke-linecap="round" />
</g>
		<g transform="matrix(1 0 0 1 30.564409957966745 -20.232773746388688)"  >
<linearGradient id="SVGID_21624" gradientUnits="userSpaceOnUse" gradientTransform="matrix(1 0 0 1 252.01563323542334 208.53445250722262)"  x1="0" y1="0" x2="512" y2="512">
<stop offset="0%" style="stop-color:rgb(120,103,86);stop-opacity: 1"/>
<stop offset="33%" style="stop-color:rgb(132,115,97);stop-opacity: 1"/>
<stop offset="67%" style="stop-color:rgb(168,164,155);stop-opacity: 1"/>
<stop offset="100%" style="stop-color:rgb(214,214,214);stop-opacity: 1"/>
</linearGradient>
<path style="stroke: none; stroke-width: 1; stroke-dasharray: none; stroke-linecap: butt; stroke-dashoffset: 0; stroke-linejoin: miter; stroke-miterlimit: 4; fill: url(#SVGID_21624); fill-rule: nonzero; opacity: 1;"  transform=" translate(-287.06440995796675, -234.2672262536113)" d="M 317 260 c -0.1 0 -0.3 0 -0.4 0 c -1.3 -0.1 -31.6 -2.8 -34.6 -24.3 c -1 -7.5 -3.7 -12.6 -7.8 -15.1 c -6.6 -4 -15.4 -0.9 -15.5 -0.9 c -2.6 0.9 -5.5 -0.4 -6.4 -3 s 0.4 -5.5 3 -6.4 c 0.5 -0.2 13.4 -4.8 24.1 1.7 c 6.9 4.2 11.1 11.7 12.6 22.3 c 1.8 13.6 25.2 15.7 25.5 15.7 c 2.7 0.2 4.8 2.6 4.6 5.4 C 321.8 258 319.6 260 317 260 z" stroke-linecap="round" />
</g>
		<g transform="matrix(1 0 0 1 120.53530128469106 103.34528390349777)"  >
<linearGradient id="SVGID_21625" gradientUnits="userSpaceOnUse" gradientTransform="matrix(1 0 0 1 311.99056780699556 325.69056780699555)"  x1="0" y1="0" x2="512" y2="512">
<stop offset="0%" style="stop-color:rgb(120,103,86);stop-opacity: 1"/>
<stop offset="33%" style="stop-color:rgb(132,115,97);stop-opacity: 1"/>
<stop offset="67%" style="stop-color:rgb(168,164,155);stop-opacity: 1"/>
<stop offset="100%" style="stop-color:rgb(214,214,214);stop-opacity: 1"/>
</linearGradient>
<path style="stroke: none; stroke-width: 1; stroke-dasharray: none; stroke-linecap: butt; stroke-dashoffset: 0; stroke-linejoin: miter; stroke-miterlimit: 4; fill: url(#SVGID_21625); fill-rule: nonzero; opacity: 1;"  transform=" translate(-377.03530128469106, -357.8452839034978)" d="M 427 390 c -23.3 0 -45 -12.6 -56.5 -32.9 c -6.3 -11.1 -18.4 -17.7 -31.4 -17.2 c -0.7 0 -1.4 0 -2.1 0 c -7.6 0 -15 -1.5 -22 -4.6 c -2.5 -1.1 -3.7 -4.1 -2.6 -6.6 s 4.1 -3.7 6.6 -2.6 c 5.7 2.5 11.8 3.8 18 3.8 c 0.6 0 1.1 0 1.7 0 c 16.8 -0.6 32.3 7.9 40.5 22.2 c 11.3 19.8 34 30.9 57 27 c 2.7 -0.5 5.3 1.4 5.8 4.1 s -1.4 5.3 -4.1 5.8 C 434.2 389.7 430.6 390 427 390 z" stroke-linecap="round" />
</g>
		<g transform="matrix(1 0 0 1 120.52074684725034 15.113127736732395)"  >
<linearGradient id="SVGID_21626" gradientUnits="userSpaceOnUse" gradientTransform="matrix(1 0 0 1 311.9772085780709 244.4262554734648)"  x1="0" y1="0" x2="512" y2="512">
<stop offset="0%" style="stop-color:rgb(120,103,86);stop-opacity: 1"/>
<stop offset="33%" style="stop-color:rgb(132,115,97);stop-opacity: 1"/>
<stop offset="67%" style="stop-color:rgb(168,164,155);stop-opacity: 1"/>
<stop offset="100%" style="stop-color:rgb(214,214,214);stop-opacity: 1"/>
</linearGradient>
<path style="stroke: none; stroke-width: 1; stroke-dasharray: none; stroke-linecap: butt; stroke-dashoffset: 0; stroke-linejoin: miter; stroke-miterlimit: 4; fill: url(#SVGID_21626); fill-rule: nonzero; opacity: 1;"  transform=" translate(-377.02074684725034, -269.6131277367324)" d="M 317 294.8 c -1.6 0 -3.2 -0.8 -4.2 -2.2 c -1.5 -2.3 -0.9 -5.4 1.4 -6.9 c 7.9 -5.3 14.9 -11.9 20.6 -19.5 c 13.9 -18.3 38.2 -26.1 60.5 -19.4 c 7 2.1 14.3 3.2 21.7 3.2 c 6.3 0 12.6 -0.8 18.8 -2.4 c 2.7 -0.7 5.4 0.9 6.1 3.6 s -0.9 5.4 -3.6 6.1 c -6.9 1.8 -14.1 2.7 -21.2 2.7 c -8.4 0 -16.6 -1.2 -24.6 -3.6 c -18.3 -5.5 -38.3 0.8 -49.6 15.8 c -6.4 8.5 -14.2 15.8 -23 21.8 C 318.9 294.6 318 294.8 317 294.8 z" stroke-linecap="round" />
</g>
		<g transform="matrix(1 0 0 1 120.33322978395074 184.59962950090272)"  >
<linearGradient id="SVGID_21627" gradientUnits="userSpaceOnUse" gradientTransform="matrix(1 0 0 1 311.8795514529 422.49925900180546)"  x1="0" y1="0" x2="512" y2="512">
<stop offset="0%" style="stop-color:rgb(120,103,86);stop-opacity: 1"/>
<stop offset="33%" style="stop-color:rgb(132,115,97);stop-opacity: 1"/>
<stop offset="67%" style="stop-color:rgb(168,164,155);stop-opacity: 1"/>
<stop offset="100%" style="stop-color:rgb(214,214,214);stop-opacity: 1"/>
</linearGradient>
<path style="stroke: none; stroke-width: 1; stroke-dasharray: none; stroke-linecap: butt; stroke-dashoffset: 0; stroke-linejoin: miter; stroke-miterlimit: 4; fill: url(#SVGID_21627); fill-rule: nonzero; opacity: 1;"  transform=" translate(-376.83322978395074, -439.0996295009027)" d="M 358.2 455.7 c -4.7 0 -9.5 -0.9 -14.1 -2.6 c -8.3 -3.2 -17.3 -3.9 -26.1 -2 c -2.7 0.6 -5.4 -1.1 -6 -3.8 c -0.6 -2.7 1.1 -5.4 3.8 -6 c 10.7 -2.4 21.7 -1.5 31.9 2.4 c 10.4 4.1 22.4 1.7 30.4 -6 c 7.9 -7.6 17.9 -12.5 28.7 -14.4 c 10.9 -1.9 22 -0.4 32.1 4.3 c 2.5 1.2 3.6 4.1 2.4 6.6 s -4.1 3.6 -6.6 2.4 c -8.3 -3.8 -17.4 -5.1 -26.3 -3.6 s -17 5.6 -23.5 11.8 C 377.8 452 368.1 455.7 358.2 455.7 z" stroke-linecap="round" />
</g>
		<g transform="matrix(1 0 0 1 120.5 75.5)"  >
<linearGradient id="SVGID_21628" gradientUnits="userSpaceOnUse" gradientTransform="matrix(1 0 0 1 312 170)"  x1="0" y1="0" x2="512" y2="512">
<stop offset="0%" style="stop-color:rgb(120,103,86);stop-opacity: 1"/>
<stop offset="33%" style="stop-color:rgb(132,115,97);stop-opacity: 1"/>
<stop offset="67%" style="stop-color:rgb(168,164,155);stop-opacity: 1"/>
<stop offset="100%" style="stop-color:rgb(214,214,214);stop-opacity: 1"/>
</linearGradient>
<path style="stroke: none; stroke-width: 1; stroke-dasharray: none; stroke-linecap: butt; stroke-dashoffset: 0; stroke-linejoin: miter; stroke-miterlimit: 4; fill: url(#SVGID_21628); fill-rule: nonzero; opacity: 1;"  transform=" translate(-377, -330)" d="M 437 490 H 317 c -2.8 0 -5 -2.2 -5 -5 V 175 c 0 -2.8 2.2 -5 5 -5 h 120 c 2.8 0 5 2.2 5 5 v 310 C 442 487.8 439.8 490 437 490 z M 322 480 h 110 V 180 H 322 V 480 z" stroke-linecap="round" />
</g>
		<g transform="matrix(1 0 0 1 95.51573039096593 -54.15743801652894)"  >
<linearGradient id="SVGID_21629" gradientUnits="userSpaceOnUse" gradientTransform="matrix(1 0 0 1 312.016584748874 169.98512396694213)"  x1="0" y1="0" x2="512" y2="512">
<stop offset="0%" style="stop-color:rgb(120,103,86);stop-opacity: 1"/>
<stop offset="33%" style="stop-color:rgb(132,115,97);stop-opacity: 1"/>
<stop offset="67%" style="stop-color:rgb(168,164,155);stop-opacity: 1"/>
<stop offset="100%" style="stop-color:rgb(214,214,214);stop-opacity: 1"/>
</linearGradient>
<path style="stroke: none; stroke-width: 1; stroke-dasharray: none; stroke-linecap: butt; stroke-dashoffset: 0; stroke-linejoin: miter; stroke-miterlimit: 4; fill: url(#SVGID_21629); fill-rule: nonzero; opacity: 1;"  transform=" translate(-352.0157303909659, -200.34256198347106)" d="M 325 230.7 c -3.3 0 -6.4 -0.3 -8.9 -0.8 c -2.7 -0.5 -4.5 -3.1 -4 -5.8 s 3.1 -4.5 5.8 -4 c 1.2 0.2 28.6 4.8 34.3 -16.4 c 6.8 -25.4 32.3 -33.2 33.4 -33.5 c 2.6 -0.8 5.4 0.7 6.2 3.4 c 0.8 2.6 -0.7 5.4 -3.4 6.2 l 0 0 c -0.2 0.1 -21.2 6.6 -26.6 26.5 C 356.6 225.7 338.6 230.7 325 230.7 z" stroke-linecap="round" />
</g>
		<g transform="matrix(1 0 0 1 150.56440995796675 59.76722625361134)"  >
<linearGradient id="SVGID_21630" gradientUnits="userSpaceOnUse" gradientTransform="matrix(1 0 0 1 372.01563323542337 288.5344525072227)"  x1="0" y1="0" x2="512" y2="512">
<stop offset="0%" style="stop-color:rgb(120,103,86);stop-opacity: 1"/>
<stop offset="33%" style="stop-color:rgb(132,115,97);stop-opacity: 1"/>
<stop offset="67%" style="stop-color:rgb(168,164,155);stop-opacity: 1"/>
<stop offset="100%" style="stop-color:rgb(214,214,214);stop-opacity: 1"/>
</linearGradient>
<path style="stroke: none; stroke-width: 1; stroke-dasharray: none; stroke-linecap: butt; stroke-dashoffset: 0; stroke-linejoin: miter; stroke-miterlimit: 4; fill: url(#SVGID_21630); fill-rule: nonzero; opacity: 1;"  transform=" translate(-407.06440995796675, -314.26722625361134)" d="M 437 340 c -0.1 0 -0.3 0 -0.4 0 c -1.3 -0.1 -31.6 -2.8 -34.6 -24.3 c -1 -7.5 -3.7 -12.6 -7.8 -15.1 c -6.6 -4 -15.4 -0.9 -15.5 -0.9 c -2.6 0.9 -5.5 -0.4 -6.4 -3 s 0.4 -5.5 3 -6.4 c 0.5 -0.2 13.4 -4.8 24.1 1.7 c 6.9 4.2 11.1 11.7 12.6 22.3 c 1.8 13.6 25.2 15.7 25.5 15.7 c 2.7 0.2 4.8 2.6 4.6 5.4 C 441.8 338 439.6 340 437 340 z" stroke-linecap="round" />
</g>
</g>
</g>
<g transform="matrix(0.33716268205286704 0 0 0.055010753387573046 248.39418211920568 267.1534251665952)"  >
<rect style="stroke: none; stroke-width: 1; stroke-dasharray: none; stroke-linecap: butt; stroke-dashoffset: 0; stroke-linejoin: miter; stroke-miterlimit: 4; fill: rgb(255,255,255); fill-rule: evenodd; opacity: 1;"  x="-393.5" y="-393.5" rx="0" ry="0" width="787" height="787" />
</g>
<g transform="matrix(1 0 0 1 243.8210461082936 267.4528155369061)" style=""  ><path fill="url(#CUSTOM_SVGID_112)" opacity="1" d="M-107.35 13.23L-103.36 13.23L-103.36-12.25L-92.83-12.25L-92.83 13.23L-88.83 13.23L-88.83-16.24L-110.72-16.24L-110.72-12.25L-107.35-12.25L-107.35 13.23Z"/>
    <linearGradient id="CUSTOM_SVGID_112" gradientUnits="userSpaceOnUse" gradientTransform="matrix(1 0 0 1 -129.8397169914547 -23.786499999999997)"  x1="0" y1="0" x2="259.6794339829094" y2="47.57299999999999">
      <stop  offset="0" style="stop-color:#2d388a;stop-opacity:undefined"/><stop  offset="1" style="stop-color:#00aeef;stop-opacity:undefined"/>
    </linearGradient>
  <path fill="url(#CUSTOM_SVGID_113)" opacity="1" d="M-82.09 3.96C-82.09 9.44-77.89 13.65-72.41 13.65C-66.94 13.65-62.73 9.44-62.73 3.96L-62.73-6.98C-62.73-12.46-66.94-16.67-72.41-16.67C-77.89-16.67-82.09-12.46-82.09-6.98ZM-66.73 3.96C-66.73 7.12-69.25 9.65-72.41 9.65C-75.57 9.65-78.10 7.12-78.10 3.96L-78.10-6.98C-78.10-10.14-75.57-12.67-72.41-12.67C-69.25-12.67-66.73-10.14-66.73-6.98Z"/>
    <linearGradient id="CUSTOM_SVGID_113" gradientUnits="userSpaceOnUse" gradientTransform="matrix(1 0 0 1 -129.8397169914547 -23.786499999999997)"  x1="0" y1="0" x2="259.6794339829094" y2="47.57299999999999">
      <stop  offset="0" style="stop-color:#2d388a;stop-opacity:undefined"/><stop  offset="1" style="stop-color:#00aeef;stop-opacity:undefined"/>
    </linearGradient>
  <path fill="url(#CUSTOM_SVGID_114)" opacity="1" d="M-54.31 13.23L-46.73-12.25L-41.89-12.25L-41.89 13.23L-37.89 13.23L-37.89-16.24L-49.68-16.24L-57.26 9.23L-60.62 9.23L-60.62 13.23Z"/>
    <linearGradient id="CUSTOM_SVGID_114" gradientUnits="userSpaceOnUse" gradientTransform="matrix(1 0 0 1 -129.8397169914547 -23.786499999999997)"  x1="0" y1="0" x2="259.6794339829094" y2="47.57299999999999">
      <stop  offset="0" style="stop-color:#2d388a;stop-opacity:undefined"/><stop  offset="1" style="stop-color:#00aeef;stop-opacity:undefined"/>
    </linearGradient>
  <path fill="url(#CUSTOM_SVGID_115)" opacity="1" d="M-16.21-7.82C-16.21-5.30-18.10-3.40-20.63-3.40L-30.31-3.40L-30.31 13.23L-26.31 13.23L-26.31 0.60L-20.63 0.60C-16.00 0.60-12.21-3.19-12.21-7.82C-12.21-12.46-16.00-16.24-20.63-16.24L-33.68-16.24L-33.68-12.25L-20.63-12.25C-18.10-12.25-16.21-10.35-16.21-7.82Z"/>
    <linearGradient id="CUSTOM_SVGID_115" gradientUnits="userSpaceOnUse" gradientTransform="matrix(1 0 0 1 -129.8397169914547 -23.786499999999997)"  x1="0" y1="0" x2="259.6794339829094" y2="47.57299999999999">
      <stop  offset="0" style="stop-color:#2d388a;stop-opacity:undefined"/><stop  offset="1" style="stop-color:#00aeef;stop-opacity:undefined"/>
    </linearGradient>
  <path fill="url(#CUSTOM_SVGID_116)" opacity="1" d="M-7.58 3.96C-7.58 9.44-3.37 13.65 2.10 13.65C7.58 13.65 11.79 9.44 11.79 3.96L11.79-6.98C11.79-12.46 7.58-16.67 2.10-16.67C-3.37-16.67-7.58-12.46-7.58-6.98ZM7.79 3.96C7.79 7.12 5.26 9.65 2.10 9.65C-1.05 9.65-3.58 7.12-3.58 3.96L-3.58-6.98C-3.58-10.14-1.05-12.67 2.10-12.67C5.26-12.67 7.79-10.14 7.79-6.98Z"/>
    <linearGradient id="CUSTOM_SVGID_116" gradientUnits="userSpaceOnUse" gradientTransform="matrix(1 0 0 1 -129.8397169914547 -23.786499999999997)"  x1="0" y1="0" x2="259.6794339829094" y2="47.57299999999999">
      <stop  offset="0" style="stop-color:#2d388a;stop-opacity:undefined"/><stop  offset="1" style="stop-color:#00aeef;stop-opacity:undefined"/>
    </linearGradient>
  <path fill="url(#CUSTOM_SVGID_117)" opacity="1" d="M17.68 3.96C17.68 9.44 21.89 13.65 27.37 13.65C33.68 13.65 36.00 8.17 36.00 8.17L32.63 6.07C32.63 6.07 31.36 9.65 27.37 9.65C24.21 9.65 21.68 7.12 21.68 3.96L21.68-6.98C21.68-10.14 24.21-12.67 27.37-12.67C31.36-12.67 32.63-9.09 32.63-9.09L36.00-11.19C36.00-11.19 33.68-16.67 27.37-16.67C21.89-16.67 17.68-12.46 17.68-6.98Z"/>
    <linearGradient id="CUSTOM_SVGID_117" gradientUnits="userSpaceOnUse" gradientTransform="matrix(1 0 0 1 -129.8397169914547 -23.786499999999997)"  x1="0" y1="0" x2="259.6794339829094" y2="47.57299999999999">
      <stop  offset="0" style="stop-color:#2d388a;stop-opacity:undefined"/><stop  offset="1" style="stop-color:#00aeef;stop-opacity:undefined"/>
    </linearGradient>
  <path fill="url(#CUSTOM_SVGID_118)" opacity="1" d="M39.78 3.96C39.78 9.44 43.99 13.65 49.47 13.65C55.78 13.65 58.10 8.17 58.10 8.17L54.73 6.07C54.73 6.07 53.47 9.65 49.47 9.65C46.31 9.65 43.78 7.12 43.78 3.96L43.78-6.98C43.78-10.14 46.31-12.67 49.47-12.67C53.47-12.67 54.73-9.09 54.73-9.09L58.10-11.19C58.10-11.19 55.78-16.67 49.47-16.67C43.99-16.67 39.78-12.46 39.78-6.98Z"/>
    <linearGradient id="CUSTOM_SVGID_118" gradientUnits="userSpaceOnUse" gradientTransform="matrix(1 0 0 1 -129.8397169914547 -23.786499999999997)"  x1="0" y1="0" x2="259.6794339829094" y2="47.57299999999999">
      <stop  offset="0" style="stop-color:#2d388a;stop-opacity:undefined"/><stop  offset="1" style="stop-color:#00aeef;stop-opacity:undefined"/>
    </linearGradient>
  <path fill="url(#CUSTOM_SVGID_119)" opacity="1" d="M66.73 13.23L77.25-8.25L77.25 13.23L81.25 13.23L81.25-16.24L77.25-16.24L66.73 5.23L66.73-16.24L59.36-16.24L59.36-12.25L62.73-12.25L62.73 13.23Z"/>
    <linearGradient id="CUSTOM_SVGID_119" gradientUnits="userSpaceOnUse" gradientTransform="matrix(1 0 0 1 -129.8397169914547 -23.786499999999997)"  x1="0" y1="0" x2="259.6794339829094" y2="47.57299999999999">
      <stop  offset="0" style="stop-color:#2d388a;stop-opacity:undefined"/><stop  offset="1" style="stop-color:#00aeef;stop-opacity:undefined"/>
    </linearGradient>
  <path fill="url(#CUSTOM_SVGID_120)" opacity="1" d="M92.83 13.23L103.36-8.25L103.36 13.23L107.35 13.23L107.35-16.24L103.36-16.24L92.83 5.23L92.83-16.24L85.46-16.24L85.46-12.25L88.83-12.25L88.83 13.23Z"/>
    <linearGradient id="CUSTOM_SVGID_120" gradientUnits="userSpaceOnUse" gradientTransform="matrix(1 0 0 1 -129.8397169914547 -23.786499999999997)"  x1="0" y1="0" x2="259.6794339829094" y2="47.57299999999999">
      <stop  offset="0" style="stop-color:#2d388a;stop-opacity:undefined"/><stop  offset="1" style="stop-color:#00aeef;stop-opacity:undefined"/>
    </linearGradient>
  </g></svg>