<?xml version="1.0" encoding="UTF-8"?>
<!DOCTYPE svg PUBLIC "-//W3C//DTD SVG 1.1//EN" "http://www.w3.org/Graphics/SVG/1.1/DTD/svg11.dtd">
<!-- Creator: CorelDRAW X7 -->
<svg xmlns="http://www.w3.org/2000/svg" xml:space="preserve" width="42.3332mm" height="42.3332mm" version="1.1" style="shape-rendering:geometricPrecision; text-rendering:geometricPrecision; image-rendering:optimizeQuality; fill-rule:evenodd; clip-rule:evenodd"
viewBox="0 0 4233 4233"
 xmlns:xlink="http://www.w3.org/1999/xlink">
 <defs>
  <style type="text/css">
   <![CDATA[
    .str1 {stroke:#545454;stroke-width:50}
    .str0 {stroke:#336699;stroke-width:25}
    .fil3 {fill:none;fill-rule:nonzero}
    .fil2 {fill:#336699}
    .fil1 {fill:#545454}
    .fil0 {fill:#336699;fill-rule:nonzero}
   ]]>
  </style>
 </defs>
 <g id="Слой_x0020_1">
  <metadata id="CorelCorpID_0Corel-Layer"/>
  <path class="fil0 str0" d="M2117 2294l98 0 -576 -969 -141 238 434 731 185 0 0 0zm-497 -1002l-142 -238 -326 549 -7 -4 142 254 333 -561 0 0zm-122 -271l756 1273 283 0c-173,-292 -352,-593 -531,-895 -123,-207 -246,-413 -367,-617l-141 239 0 0zm122 -271c-55,-93 -110,-185 -164,-276l-481 822 155 277 490 -823 0 0zm-316 1134l139 248c13,-23 10,-18 86,-145 30,-51 60,-102 91,-153l-142 -238 -172 289 -2 -1 0 0zm158 281l72 129 134 0 56 -93 57 -96 -142 -238c-27,46 -54,91 -81,137 -26,44 -4,6 -96,161l0 0zm245 129l186 0 -93 -156 -48 80 -45 76zm758 -1813l140 236 74 -125c29,-47 56,-94 84,-141l-52 -90 -175 0c0,0 -59,99 -71,120zm-20 -33c18,-29 35,-58 52,-87l-103 0 51 87 0 0zm338 36c-25,41 -50,83 -75,125l-83 141 141 239 157 -264 -140 -241 0 0zm160 273l-318 535 142 238 316 -533 -140 -240 0 0zm-338 502l142 -238 -392 -660 -284 0 534 898 0 0zm498 -229l-478 804c59,99 116,196 171,288l462 -826 -155 -266 0 0zm-498 771l142 -238 -715 -1202 -284 0c188,318 365,614 542,910 106,180 213,359 315,530l0 0zm172 355c-182,-307 -349,-587 -516,-867 -191,-321 -382,-642 -552,-928l0 0 -186 0 -47 80c0,1 0,1 0,1 182,306 370,623 558,940 183,307 366,615 542,912l124 0 77 -138 0 0zm-68 172l-1185 0 0 0c-6,0 -12,-3 -15,-9l-568 -1015 0 0c-2,-5 -3,-11 0,-17l557 -950c3,-5 9,-9 15,-9l1207 0c3,0 14,6 15,8l557 951c3,5 3,11 0,17l-567 1014c-3,6 -9,10 -16,10l0 0z"/>
  <g id="_1834363339728">
   <g>
    <polygon class="fil1" points="158,3194 243,3194 243,2656 465,2656 465,3194 550,3194 550,2572 88,2572 88,2656 158,2656 "/>
    <path class="fil1" d="M1003 2914c0,-98 -67,-165 -165,-165 -97,0 -164,67 -164,165l0 124c0,98 67,165 164,165 98,0 165,-67 165,-165l0 -124zm-249 0c0,-49 35,-85 84,-85 49,0 85,36 85,85l0 124c0,49 -36,85 -85,85 -49,0 -84,-36 -84,-85l0 -124z"/>
    <polygon class="fil1" points="1234,2838 1318,2838 1318,3194 1398,3194 1398,2758 1176,2758 1069,3114 1012,3114 1012,3194 1127,3194 "/>
    <path class="fil1" d="M1980 2749c0,54 -40,94 -93,94l-204 0 0 351 84 0 0 -267 120 0c98,0 178,-80 178,-178 0,-97 -80,-177 -178,-177l-275 0 0 84 275 0c53,0 93,40 93,93z"/>
    <path class="fil1" d="M2456 2914c0,-98 -67,-165 -165,-165 -97,0 -164,67 -164,165l0 124c0,98 67,165 164,165 98,0 165,-67 165,-165l0 -124zm-249 0c0,-49 35,-85 84,-85 49,0 85,36 85,85l0 124c0,49 -36,85 -85,85 -49,0 -84,-36 -84,-85l0 -124z"/>
    <path class="fil1" d="M2545 3038c0,98 66,165 164,165 120,0 147,-94 147,-94l-67 -40c0,0 -18,54 -80,54 -49,0 -84,-36 -84,-85l0 -124c0,-49 35,-85 84,-85 62,0 80,54 80,54l67 -40c0,0 -27,-94 -147,-94 -98,0 -164,67 -164,165l0 124z"/>
    <path class="fil1" d="M2918 3038c0,98 67,165 164,165 120,0 147,-94 147,-94l-67 -40c0,0 -18,54 -80,54 -49,0 -84,-36 -84,-85l0 -124c0,-49 35,-85 84,-85 62,0 80,54 80,54l67 -40c0,0 -27,-94 -147,-94 -97,0 -164,67 -164,165l0 124z"/>
    <polygon class="fil1" points="3638,3194 3638,2758 3558,2758 3398,3047 3398,2758 3256,2758 3256,2838 3318,2838 3318,3194 3398,3194 3558,2905 3558,3194 "/>
    <polygon class="fil1" points="4091,3194 4091,2758 4011,2758 3851,3047 3851,2758 3709,2758 3709,2838 3771,2838 3771,3194 3851,3194 4011,2905 4011,3194 "/>
   </g>
   <g>
    <polygon class="fil2" points="252,3375 252,3465 190,3465 190,3375 158,3375 158,3586 190,3586 190,3493 252,3493 252,3586 284,3586 284,3375 "/>
    <path class="fil2" d="M458 3423c-33,0 -55,19 -56,49l30 0c2,-14 12,-21 25,-21 17,0 24,11 24,29l0 12 -24 0c-36,0 -60,16 -60,49 0,29 20,49 51,49 18,0 30,-8 36,-19l3 15 24 0 0 -106c0,-36 -18,-57 -53,-57zm23 116c0,15 -10,25 -27,25 -17,0 -26,-9 -26,-23 0,-16 10,-24 29,-24l24 0 0 22z"/>
    <polygon class="fil2" points="736,3427 629,3427 629,3586 660,3586 660,3454 706,3454 706,3586 736,3586 "/>
    <path class="fil2" d="M908 3589c36,0 59,-21 59,-60l0 -46c0,-38 -23,-60 -59,-60 -35,0 -58,22 -58,60l0 46c0,39 23,60 58,60zm0 -28c-17,0 -27,-10 -27,-32l0 -46c0,-22 10,-32 27,-32 17,0 28,10 28,32l0 46c0,22 -11,32 -28,32z"/>
    <path class="fil2" d="M1063 3588c32,0 48,-21 52,-66 2,-18 4,-49 4,-68l37 0 0 132 30 0 0 -159 -96 0c-1,31 -3,68 -5,91 -2,25 -6,42 -22,42l0 28z"/>
    <path class="fil2" d="M1360 3481l-26 0 0 -54 -30 0 0 159 56 0c32,0 55,-22 55,-53 0,-31 -23,-52 -55,-52zm-3 78l-23 0 0 -52 23 0c16,0 27,10 27,26 0,16 -11,26 -27,26z"/>
    <polygon class="fil2" points="1595,3427 1595,3491 1549,3491 1549,3427 1518,3427 1518,3586 1549,3586 1549,3518 1595,3518 1595,3586 1625,3586 1625,3427 "/>
    <path class="fil2" d="M1800 3482l-26 0 0 -54 -31 0 0 158 57 0c31,0 54,-21 54,-52 0,-31 -23,-52 -54,-52zm74 -54l0 158 31 0 0 -158 -31 0zm-78 131l-22 0 0 -50 22 0c16,0 27,9 27,24 0,17 -11,26 -27,26z"/>
    <path class="fil2" d="M2105 3536c-3,17 -11,25 -29,25 -17,0 -27,-10 -27,-31l0 -12 84 0 0 -36c0,-37 -22,-59 -58,-59 -34,0 -56,22 -56,59l0 48c0,37 22,59 56,59 36,0 57,-19 60,-53l-30 0zm-29 -85c17,0 27,9 27,31l0 13 -54 0 0 -13c0,-22 10,-31 27,-31z"/>
    <polygon class="fil2" points="2502,3427 2395,3427 2395,3586 2426,3586 2426,3454 2472,3454 2472,3586 2502,3586 "/>
    <path class="fil2" d="M2674 3589c36,0 59,-21 59,-60l0 -46c0,-38 -23,-60 -59,-60 -35,0 -58,22 -58,60l0 46c0,39 23,60 58,60zm0 -28c-17,0 -27,-10 -27,-32l0 -46c0,-22 10,-32 27,-32 18,0 28,10 28,32l0 46c0,22 -10,32 -28,32z"/>
    <polygon class="fil2" points="2933,3586 2967,3586 2908,3495 2960,3427 2924,3427 2896,3465 2877,3495 2877,3427 2847,3427 2847,3586 2877,3586 2877,3529 2888,3518 "/>
    <path class="fil2" d="M3128 3423c-15,0 -29,8 -37,18l-3 -14 -21 0 0 213 29 0 0 -63c8,8 20,12 32,12 32,0 53,-22 53,-60l0 -44c0,-39 -22,-62 -53,-62zm22 106c0,23 -10,33 -27,33 -17,0 -27,-13 -27,-33l0 -44c0,-23 11,-34 27,-34 17,0 27,11 27,34l0 44z"/>
    <path class="fil2" d="M3351 3482l-26 0 0 -54 -31 0 0 158 57 0c31,0 54,-21 54,-52 0,-31 -23,-52 -54,-52zm74 -54l0 158 31 0 0 -158 -31 0zm-77 131l-23 0 0 -50 23 0c16,0 26,9 26,24 0,17 -10,26 -26,26z"/>
    <polygon class="fil2" points="3664,3427 3559,3427 3559,3455 3596,3455 3596,3586 3627,3586 3627,3455 3664,3455 "/>
    <path class="fil2" d="M3767 3586l31 0 32 -64c6,-13 17,-42 18,-48l1 0c-1,16 -2,36 -2,51l0 61 30 0 0 -159 -31 0 -32 67c-5,13 -15,36 -17,45l-1 -1c0,-17 0,-31 0,-44l0 -67 -29 0 0 159z"/>
    <path class="fil2" d="M4040 3427c-33,0 -55,20 -55,52 0,26 13,42 29,49l-35 58 35 0 30 -54 18 0 0 54 29 0 0 -159 -51 0zm22 80l-21 0c-18,0 -27,-9 -27,-27 0,-17 10,-27 27,-27l21 0 0 54z"/>
   </g>
   <g>
    <line class="fil3 str1" x1="158" y1="3288" x2="4091" y2= "3288" />
   </g>
  </g>
 </g>
</svg>
