<?xml version="1.0" encoding="UTF-8"?>
<!DOCTYPE svg PUBLIC "-//W3C//DTD SVG 1.1//EN" "http://www.w3.org/Graphics/SVG/1.1/DTD/svg11.dtd">
<!-- Creator: CorelDRAW X7 -->
<svg xmlns="http://www.w3.org/2000/svg" xml:space="preserve" width="78.052mm" height="15.8748mm" version="1.1" style="shape-rendering:geometricPrecision; text-rendering:geometricPrecision; image-rendering:optimizeQuality; fill-rule:evenodd; clip-rule:evenodd"
viewBox="0 0 7805 1587"
 xmlns:xlink="http://www.w3.org/1999/xlink">
 <defs>
  <style type="text/css">
   <![CDATA[
    .str1 {stroke:#545454;stroke-width:50}
    .str0 {stroke:#336699;stroke-width:25}
    .fil3 {fill:none;fill-rule:nonzero}
    .fil1 {fill:#336699}
    .fil0 {fill:#545454}
    .fil2 {fill:#336699;fill-rule:nonzero}
   ]]>
  </style>
 </defs>
 <g id="Слой_x0020_1">
  <metadata id="CorelCorpID_0Corel-Layer"/>
  <g id="_1836003321808">
   <g>
    <polygon class="fil0" points="1927,929 2053,929 2053,126 2385,126 2385,929 2511,929 2511,0 1821,0 1821,126 1927,126 "/>
    <path class="fil0" d="M3187 511c0,-146 -99,-246 -245,-246 -146,0 -246,100 -246,246l0 186c0,145 100,245 246,245 146,0 245,-100 245,-245l0 -186zm-371 0c0,-73 53,-126 126,-126 73,0 126,53 126,126l0 186c0,73 -53,126 -126,126 -73,0 -126,-53 -126,-126l0 -186z"/>
    <polygon class="fil0" points="3532,398 3658,398 3658,929 3778,929 3778,279 3446,279 3287,809 3201,809 3201,929 3373,929 "/>
    <path class="fil0" d="M4647 265c0,80 -60,140 -139,140l-305 0 0 524 126 0 0 -398 179 0c146,0 265,-120 265,-266 0,-146 -119,-265 -265,-265l-411 0 0 126 411 0c79,0 139,60 139,139z"/>
    <path class="fil0" d="M5357 511c0,-146 -99,-246 -245,-246 -146,0 -246,100 -246,246l0 186c0,145 100,245 246,245 146,0 245,-100 245,-245l0 -186zm-371 0c0,-73 53,-126 126,-126 73,0 126,53 126,126l0 186c0,73 -53,126 -126,126 -73,0 -126,-53 -126,-126l0 -186z"/>
    <path class="fil0" d="M5490 697c0,145 99,245 246,245 179,0 218,-139 218,-139l-99 -60c0,0 -27,80 -119,80 -73,0 -127,-53 -127,-126l0 -186c0,-73 54,-126 127,-126 92,0 119,79 119,79l99 -59c0,0 -39,-140 -218,-140 -147,0 -246,100 -246,246l0 186z"/>
    <path class="fil0" d="M6047 697c0,145 100,245 246,245 179,0 219,-139 219,-139l-100 -60c0,0 -26,80 -119,80 -73,0 -126,-53 -126,-126l0 -186c0,-73 53,-126 126,-126 93,0 119,79 119,79l100 -59c0,0 -40,-140 -219,-140 -146,0 -246,100 -246,246l0 186z"/>
    <polygon class="fil0" points="7122,929 7122,279 7003,279 6764,710 6764,279 6552,279 6552,398 6644,398 6644,929 6764,929 7003,498 7003,929 "/>
    <polygon class="fil0" points="7799,929 7799,279 7680,279 7441,710 7441,279 7228,279 7228,398 7321,398 7321,929 7441,929 7680,498 7680,929 "/>
   </g>
   <g>
    <polygon class="fil1" points="2067,1199 2067,1333 1974,1333 1974,1199 1927,1199 1927,1514 1974,1514 1974,1376 2067,1376 2067,1514 2114,1514 2114,1199 "/>
    <path class="fil1" d="M2374 1271c-50,0 -82,28 -84,74l45 0c3,-21 17,-32 38,-32 25,0 35,16 35,44l0 17 -36 0c-54,0 -89,24 -89,73 0,44 30,73 76,73 27,0 45,-12 54,-28l4 22 37 0 0 -157c0,-54 -28,-86 -80,-86zm34 173c0,22 -15,38 -40,38 -25,0 -39,-14 -39,-35 0,-24 16,-36 43,-36l36 0 0 33z"/>
    <polygon class="fil1" points="2789,1277 2630,1277 2630,1514 2675,1514 2675,1317 2744,1317 2744,1514 2789,1514 "/>
    <path class="fil1" d="M3046 1520c54,0 87,-32 87,-90l0 -69c0,-57 -33,-90 -87,-90 -53,0 -86,33 -86,90l0 69c0,58 33,90 86,90zm0 -43c-25,0 -41,-14 -41,-47l0 -69c0,-33 16,-47 41,-47 26,0 41,14 41,47l0 69c0,33 -15,47 -41,47z"/>
    <path class="fil1" d="M3277 1517c49,0 72,-31 78,-98 3,-27 6,-74 6,-102l56 0 0 197 44 0 0 -237 -143 0c-1,46 -5,101 -7,135 -4,38 -9,64 -34,64l0 41z"/>
    <path class="fil1" d="M3722 1357l-39 0 0 -80 -46 0 0 237 85 0c46,0 81,-32 81,-79 0,-46 -35,-78 -81,-78zm-5 118l-34 0 0 -78 34 0c24,0 40,14 40,38 0,25 -16,40 -40,40z"/>
    <polygon class="fil1" points="4072,1277 4072,1373 4003,1373 4003,1277 3958,1277 3958,1514 4003,1514 4003,1413 4072,1413 4072,1514 4117,1514 4117,1277 "/>
    <path class="fil1" d="M4378 1360l-39 0 0 -82 -46 0 0 236 85 0c46,0 81,-31 81,-77 0,-46 -35,-77 -81,-77zm111 -82l0 236 45 0 0 -236 -45 0zm-116 197l-34 0 0 -76 34 0c23,0 40,14 40,37 0,24 -17,39 -40,39z"/>
    <path class="fil1" d="M4833 1440c-4,26 -16,37 -43,37 -25,0 -40,-14 -40,-47l0 -18 125 0 0 -52c0,-56 -33,-89 -86,-89 -52,0 -84,33 -84,89l0 70c0,57 32,89 84,89 53,0 85,-29 90,-79l-46 0zm-43 -128c25,0 40,15 40,47l0 20 -80 0 0 -20c0,-32 15,-47 40,-47z"/>
    <polygon class="fil1" points="5427,1277 5267,1277 5267,1514 5313,1514 5313,1317 5381,1317 5381,1514 5427,1514 "/>
    <path class="fil1" d="M5684 1520c53,0 87,-32 87,-90l0 -69c0,-57 -34,-90 -87,-90 -54,0 -87,33 -87,90l0 69c0,58 33,90 87,90zm0 -43c-26,0 -41,-14 -41,-47l0 -69c0,-33 15,-47 41,-47 25,0 41,14 41,47l0 69c0,33 -16,47 -41,47z"/>
    <polygon class="fil1" points="6069,1514 6121,1514 6032,1378 6110,1277 6056,1277 6015,1334 5986,1378 5986,1277 5941,1277 5941,1514 5986,1514 5986,1430 6002,1413 "/>
    <path class="fil1" d="M6361 1272c-22,0 -44,12 -56,27l-3 -22 -33 0 0 318 45 0 0 -94c12,12 29,19 47,19 48,0 79,-33 79,-91l0 -65c0,-58 -32,-92 -79,-92zm32 157c0,35 -13,50 -40,50 -24,0 -39,-19 -39,-50l0 -66c0,-34 16,-50 39,-50 26,0 40,16 40,51l0 65z"/>
    <path class="fil1" d="M6694 1360l-39 0 0 -82 -46 0 0 236 85 0c47,0 81,-31 81,-77 0,-46 -34,-77 -81,-77zm111 -82l0 236 46 0 0 -236 -46 0zm-116 197l-34 0 0 -76 34 0c24,0 40,14 40,37 0,24 -16,39 -40,39z"/>
    <polygon class="fil1" points="7162,1277 7004,1277 7004,1318 7061,1318 7061,1514 7106,1514 7106,1318 7162,1318 "/>
    <path class="fil1" d="M7315 1514l47 0 47 -95c10,-20 25,-63 27,-72l2 0c-2,24 -2,53 -2,76l0 91 44 0 0 -237 -47 0 -48 100c-7,19 -21,55 -25,67l-2 -1c1,-26 1,-47 1,-66l0 -100 -44 0 0 237z"/>
    <path class="fil1" d="M7724 1277c-50,0 -84,30 -84,78 0,38 20,63 45,73l-52 86 51 0 44 -80 27 0 0 80 44 0 0 -237 -75 0zm31 120l-31 0c-26,0 -39,-15 -39,-41 0,-25 14,-39 40,-39l30 0 0 80z"/>
   </g>
   <path class="fil2 str0" d="M891 1503l75 0 -436 -734 -107 180 329 554 139 0 0 0zm-376 -759l-107 -180 -247 416 -5 -3 107 192 252 -425 0 0zm-92 -205l573 964 214 0c-131,-221 -267,-449 -403,-678 -92,-156 -185,-313 -277,-467l-107 181 0 0zm92 -205c-41,-70 -82,-140 -123,-209l-365 622 118 210 370 -623 0 0zm-239 859l105 187c10,-17 8,-13 65,-110 23,-38 46,-77 69,-115l-107 -181 -130 219 -2 0 0 0zm120 213l54 97 102 0 42 -71 43 -72 -107 -180c-21,34 -41,69 -62,103 -19,33 -3,5 -72,123l0 0zm185 97l141 0 -70 -118 -36 60 -35 58zm574 -1373l106 179 57 -95c21,-36 42,-71 63,-107l-40 -67 -132 0c0,0 -45,75 -54,90zm-15 -25c13,-22 26,-44 39,-66l-78 0 39 66 0 0zm256 27c-19,32 -38,63 -57,95l-63 107 107 181 119 -200 -106 -182 0 -1zm121 208l-241 404 108 181 239 -404 -106 -181 0 0zm-255 380l107 -181 -297 -499 -215 0 405 680 0 0zm376 -174l-362 609c45,75 88,148 130,218l350 -626 -118 -201 0 0zm-377 584l108 -181 -541 -910 -216 0c143,241 277,465 410,690 81,135 162,271 239,401l0 0zm131 268c-138,-232 -265,-444 -391,-656 -145,-243 -290,-486 -418,-702l0 -1 -141 0 -36 61c0,1 1,1 1,1 137,231 280,471 422,711 138,233 277,466 410,691l94 0 59 -105 0 0zm-52 130l-897 0 0 0c-5,0 -9,-2 -11,-6l-430 -769 0 0c-3,-4 -3,-8 0,-12l421 -720c2,-4 7,-7 12,-7l913 0c3,0 11,5 11,6l422 720c2,4 3,9 0,13l-429 768c-2,4 -7,7 -12,7l0 0z"/>
   <g>
    <line class="fil3 str1" x1="1927" y1="1070" x2="7799" y2= "1070" />
   </g>
  </g>
 </g>
</svg>
